<svg id="Layer_1" enable-background="new 0 0 512 512" height="512" viewBox="0 0 512 512" width="512" xmlns="http://www.w3.org/2000/svg"><g><path d="m366 350v-320c0-11.046-8.954-20-20-20h-240c-11.046 0-20 8.954-20 20v320c0 11.046 8.954 20 20 20h240c11.046 0 20-8.954 20-20z" fill="#fff"/><path d="m136 10v360h-30c-11.05 0-20-8.95-20-20v-320c0-11.05 8.95-20 20-20z" fill="#ccf5fc"/><g><path d="m316 190h-140c-5.523 0-10-4.477-10-10s4.477-10 10-10h140c5.522 0 10 4.477 10 10s-4.478 10-10 10z" fill="#dfedff"/></g><g><path d="m316 230h-140c-5.523 0-10-4.477-10-10s4.477-10 10-10h140c5.522 0 10 4.477 10 10s-4.478 10-10 10z" fill="#dfedff"/></g><g><path d="m266 270h-90c-5.523 0-10-4.477-10-10s4.477-10 10-10h90c5.522 0 10 4.477 10 10s-4.478 10-10 10z" fill="#dfedff"/></g><g><path d="m216 310h-40c-5.523 0-10-4.477-10-10s4.477-10 10-10h40c5.523 0 10 4.477 10 10s-4.477 10-10 10z" fill="#dfedff"/></g><g><g><path d="m212 130h-36c-5.523 0-10-4.477-10-10s4.477-10 10-10h36c5.523 0 10 4.477 10 10s-4.477 10-10 10z" fill="#dfedff"/></g><g><path d="m246 90h-70c-5.523 0-10-4.477-10-10s4.477-10 10-10h70c5.523 0 10 4.477 10 10s-4.477 10-10 10z" fill="#dfedff"/></g></g><g><circle cx="336" cy="392" fill="#ff7d97" r="110"/><path d="m336 452c-16.569 0-31.569-6.716-42.426-17.574l-35.355 35.355c19.905 19.907 47.405 32.219 77.781 32.219 60.751 0 110-49.249 110-110h-50c0 33.137-26.863 60-60 60z" fill="#7dd9c2"/><path d="m336 282v50c33.137 0 60 26.863 60 60h50c0-60.751-49.249-110-110-110z" fill="#ffee80"/><path d="m376 278.864v-248.864c0-16.542-13.458-30-30-30h-240c-16.542 0-30 13.458-30 30v10h-10c-5.522 0-10 4.477-10 10s4.478 10 10 10h10v20h-10c-5.522 0-10 4.477-10 10s4.478 10 10 10h10v20h-10c-5.522 0-10 4.477-10 10s4.478 10 10 10h10v20h-10c-5.522 0-10 4.477-10 10s4.478 10 10 10h10v20h-10c-5.522 0-10 4.477-10 10s4.478 10 10 10h10v20h-10c-5.522 0-10 4.477-10 10s4.478 10 10 10h10v20h-10c-5.522 0-10 4.477-10 10s4.478 10 10 10h10v20h-10c-5.522 0-10 4.477-10 10s4.478 10 10 10h10v10c0 16.542 13.458 30 30 30h110.598c-.393 3.948-.598 7.95-.598 12 0 66.168 53.832 120 120 120s120-53.832 120-120c0-52.148-33.44-96.626-80-113.136zm-280 71.136v-320c0-5.514 4.486-10 10-10h20v340h-20c-5.514 0-10-4.486-10-10zm50 10v-340h200c5.514 0 10 4.486 10 10v243.676c-6.507-1.096-13.186-1.676-20-1.676-55.09 0-101.621 37.318-115.661 88zm190 132c-55.141 0-100-44.86-100-100s44.859-100 100-100 100 44.86 100 100-44.859 100-100 100z" fill="#60a4ff"/><circle cx="336" cy="392" fill="#fff" r="60"/></g></g></svg>