<svg id="Layer_1" enable-background="new 0 0 512 512" height="512" viewBox="0 0 512 512" width="512" xmlns="http://www.w3.org/2000/svg"><g><path d="m366 350v-320c0-11.046-8.954-20-20-20h-240c-11.046 0-20 8.954-20 20v320c0 11.046 8.954 20 20 20h240c11.046 0 20-8.954 20-20z" fill="#fff"/><path d="m136 10v360h-30c-11.05 0-20-8.95-20-20v-320c0-11.05 8.95-20 20-20z" fill="#ccf5fc"/><g><path d="m316 190h-140c-5.523 0-10-4.477-10-10s4.477-10 10-10h140c5.523 0 10 4.477 10 10s-4.477 10-10 10z" fill="#dfedff"/></g><g><path d="m316 230h-140c-5.523 0-10-4.477-10-10s4.477-10 10-10h140c5.523 0 10 4.477 10 10s-4.477 10-10 10z" fill="#dfedff"/></g><g><path d="m226 270h-50c-5.523 0-10-4.477-10-10s4.477-10 10-10h50c5.523 0 10 4.477 10 10s-4.477 10-10 10z" fill="#dfedff"/></g><g><path d="m226 310h-50c-5.523 0-10-4.477-10-10s4.477-10 10-10h50c5.523 0 10 4.477 10 10s-4.477 10-10 10z" fill="#dfedff"/></g><g><g><path d="m212 130h-36c-5.523 0-10-4.477-10-10s4.477-10 10-10h36c5.523 0 10 4.477 10 10s-4.477 10-10 10z" fill="#dfedff"/></g><g><path d="m246 90h-70c-5.523 0-10-4.477-10-10s4.477-10 10-10h70c5.523 0 10 4.477 10 10s-4.477 10-10 10z" fill="#dfedff"/></g></g><path d="m426 502h-140c-11.046 0-20-8.954-20-20v-200c0-11.046 8.954-20 20-20h140c11.046 0 20 8.954 20 20v200c0 11.046-8.954 20-20 20z" fill="#ccf5fc"/><path d="m296 302h120v40h-120z" fill="#66e0f7"/><g><path d="m306 382h100v80h-100z" fill="#fff"/><path d="m306 422h50v40h-50z" fill="#ff9eb1"/><path d="m306 382h50v40h-50z" fill="#d0f2d2"/><path d="m356 382h50v40h-50z" fill="#ffee80"/><g fill="#60a4ff"><path d="m426 252h-50v-222c0-16.542-13.458-30-30-30h-240c-16.542 0-30 13.458-30 30v10h-10c-5.523 0-10 4.477-10 10s4.477 10 10 10h10v20h-10c-5.523 0-10 4.477-10 10s4.477 10 10 10h10v20h-10c-5.523 0-10 4.477-10 10s4.477 10 10 10h10v20h-10c-5.523 0-10 4.477-10 10s4.477 10 10 10h10v20h-10c-5.523 0-10 4.477-10 10s4.477 10 10 10h10v20h-10c-5.523 0-10 4.477-10 10s4.477 10 10 10h10v20h-10c-5.523 0-10 4.477-10 10s4.477 10 10 10h10v20h-10c-5.523 0-10 4.477-10 10s4.477 10 10 10h10v10c0 16.542 13.458 30 30 30h150v102c0 16.542 13.458 30 30 30h140c16.542 0 30-13.458 30-30v-200c0-16.542-13.458-30-30-30zm-330 98v-320c0-5.514 4.486-10 10-10h20v340h-20c-5.514 0-10-4.486-10-10zm50 10v-340h200c5.514 0 10 4.486 10 10v222h-70c-16.542 0-30 13.458-30 30v78zm290 122c0 5.514-4.486 10-10 10h-140c-5.514 0-10-4.486-10-10v-200c0-5.514 4.486-10 10-10h140c5.514 0 10 4.486 10 10z"/><path d="m406 372h-100c-5.523 0-10 4.477-10 10v80c0 5.523 4.477 10 10 10h100c5.523 0 10-4.477 10-10v-80c0-5.523-4.477-10-10-10zm-10 40h-30v-20h30zm-50-20v20h-30v-20zm-30 40h30v20h-30zm50 20v-20h30v20z"/></g></g></g></svg>