<svg id="Layer_1" enable-background="new 0 0 511.986 511.986" height="512" viewBox="0 0 511.986 511.986" width="512" xmlns="http://www.w3.org/2000/svg"><g><path d="m461.986 385.993h-360v-230c0-11.046 8.954-20 20-20h320c11.046 0 20 8.954 20 20z" fill="#ccf5fc"/><path d="m61.986 385.993h440v50h-440z" fill="#fff"/><path d="m15.844 287.515c-7.811-7.811-7.811-20.474 0-28.284l60.811-60.811 28.284 28.284-60.811 60.811c-7.81 7.81-20.474 7.81-28.284 0z" fill="#66e0f7"/><circle cx="147.366" cy="155.993" fill="#ccf5fc" r="80"/><path d="m501.986 375.993h-30v-220c0-16.542-13.458-30-30-30h-209.768c-12.383-34.92-45.741-60-84.852-60-49.626 0-90 40.374-90 90 0 13.877 3.159 27.03 8.793 38.78l-57.386 57.386c-11.697 11.697-11.697 30.729 0 42.427 5.849 5.848 13.531 8.772 21.213 8.772s15.365-2.924 21.213-8.772l40.787-40.786v122.193h-30c-5.523 0-10 4.477-10 10v50c0 5.523 4.477 10 10 10h440c5.523 0 10-4.477 10-10v-50c0-5.523-4.477-10-10-10zm-354.62-290c38.598 0 70 31.402 70 70s-31.402 70-70 70-70-31.402-70-70 31.402-70 70-70zm-110.309 194.451c-3.898 3.899-10.243 3.899-14.142 0s-3.899-10.243 0-14.142l54.165-54.165c4.178 5.219 8.923 9.964 14.142 14.142zm74.929-41.702c10.866 4.664 22.826 7.251 35.38 7.251 49.626 0 90-40.374 90-90 0-3.38-.194-6.715-.559-10h205.179c5.514 0 10 4.486 10 10v220h-340zm380 187.251h-420v-30h420z" fill="#60a4ff"/><circle cx="147.366" cy="156.993" fill="#fff" r="37.5"/><path d="m221.986 345.993c-11.046 0-20-8.954-20-20v-40c0-11.046 8.954-20 20-20 11.046 0 20 8.954 20 20v40c0 11.046-8.954 20-20 20z" fill="#ffee80"/><path d="m281.986 345.993c-11.046 0-20-8.954-20-20v-80c0-11.046 8.954-20 20-20 11.046 0 20 8.954 20 20v80c0 11.046-8.954 20-20 20z" fill="#7dd9c2"/><path d="m341.986 345.993c-11.046 0-20-8.954-20-20v-20c0-11.046 8.954-20 20-20 11.046 0 20 8.954 20 20v20c0 11.046-8.954 20-20 20z" fill="#ff9eb1"/><g><g><path d="m415.986 235.993h-36c-5.523 0-10-4.477-10-10s4.477-10 10-10h36c5.523 0 10 4.477 10 10s-4.477 10-10 10z" fill="#99ebfa"/></g><g><path d="m415.986 195.993h-70c-5.523 0-10-4.477-10-10s4.477-10 10-10h70c5.523 0 10 4.477 10 10s-4.477 10-10 10z" fill="#99ebfa"/></g></g></g></svg>