<?xml version="1.0" encoding="UTF-8"?> <svg xmlns="http://www.w3.org/2000/svg" viewBox="-7834 1123 157.948 138.644"><defs><style> .cls-1 { fill: #e6e9ed; } .cls-2 { fill: #ccd1d9; } .cls-3 { fill: #fff; } .cls-4 { fill: #656d78; } .cls-5 { fill: #a0d468; } .cls-6 { fill: #48cfad; } .cls-7 { fill: #5d9cec; } .cls-8 { fill: #eac6bb; } </style></defs><g id="i3" transform="translate(-7834 1123)"><g id="Group-4"><g id="pop-up-copy"><path id="Path" class="cls-1" d="M0,132.271a2.58,2.58,0,0,0,2.548,2.6H155.4a2.58,2.58,0,0,0,2.548-2.6V5H0Z" transform="translate(0 3.775)"></path><path id="Path-2" data-name="Path" class="cls-2" d="M157.948,4.387V8.775H0V4.387C0,1.955,2.267,0,5.1,0H152.853C155.681,0,157.948,1.955,157.948,4.387Z"></path><path id="Path-3" data-name="Path" class="cls-1" d="M4.639,1H4.613a2.639,2.639,0,1,0,.026,0Z" transform="translate(1.51 0.755)"></path><path id="Path-4" data-name="Path" class="cls-1" d="M9.639,1H9.613a2.639,2.639,0,1,0,.026,0Z" transform="translate(5.285 0.755)"></path><path id="Path-5" data-name="Path" class="cls-1" d="M13.639,1h-.026a2.639,2.639,0,1,0,.026,0Z" transform="translate(8.305 0.755)"></path></g><g id="_005-team" data-name="005-team" transform="translate(10.53 15.795)"><path id="Path-6" data-name="Path" class="cls-2" d="M37.841,9H35.333c-1.4,0-2.523.379-2.523.847,0,.44,1.007.789,2.284.83-.616,1.254-2.579,2.359-5.4,3.119a36.971,36.971,0,0,1-9.511,1.135A37.006,37.006,0,0,1,10.666,13.8c-2.821-.759-4.784-1.863-5.4-3.117,1.289-.038,2.309-.39,2.309-.832C7.573,9.379,6.445,9,5.049,9H2.523C1.128,9,0,9.379,0,9.847V32.723c0,.469,1.128.847,2.523.847H37.841c1.4,0,2.523-.379,2.523-.847V9.847C40.365,9.379,39.237,9,37.841,9Z" transform="translate(0 6.795)"></path><path id="Path-7" data-name="Path" class="cls-2" d="M65.844,9H63.335c-1.4,0-2.523.379-2.523.847,0,.44,1.007.789,2.284.83-.616,1.254-2.579,2.359-5.4,3.119a36.972,36.972,0,0,1-9.511,1.135A37.006,37.006,0,0,1,38.669,13.8c-2.821-.759-4.784-1.863-5.4-3.117,1.29-.038,2.309-.39,2.309-.832,0-.468-1.128-.847-2.523-.847H30.523C29.128,9,28,9.379,28,9.847V32.723c0,.469,1.128.847,2.523.847H65.841c1.4,0,2.523-.379,2.523-.847V9.847C68.367,9.379,67.239,9,65.844,9Z" transform="translate(21.139 6.795)"></path><path id="Path-8" data-name="Path" class="cls-2" d="M92.844,9H90.335c-1.4,0-2.523.379-2.523.847,0,.44,1.007.789,2.284.83-.616,1.254-2.579,2.359-5.4,3.119a36.971,36.971,0,0,1-9.511,1.135A37.005,37.005,0,0,1,65.669,13.8c-2.821-.759-4.784-1.863-5.4-3.117,1.29-.038,2.309-.39,2.309-.832,0-.468-1.128-.847-2.523-.847H57.523C56.128,9,55,9.379,55,9.847V32.723c0,.469,1.128.847,2.523.847H92.841c1.4,0,2.523-.379,2.523-.847V9.847C95.367,9.379,94.239,9,92.844,9Z" transform="translate(41.524 6.795)"></path><path id="Path-9" data-name="Path" class="cls-3" d="M37.841,8H35.333c-1.4,0-2.523.379-2.523.847,0,.439,1.007.789,2.284.83-.616,1.253-2.579,2.359-5.4,3.119a36.964,36.964,0,0,1-9.511,1.135A37,37,0,0,1,10.666,12.8c-2.821-.759-4.784-1.864-5.4-3.117,1.289-.038,2.309-.391,2.309-.832C7.573,8.379,6.445,8,5.049,8H2.523C1.128,8,0,8.379,0,8.847V31.723c0,.468,1.128.847,2.523.847H37.841c1.4,0,2.523-.379,2.523-.847V8.847C40.365,8.379,39.237,8,37.841,8Z" transform="translate(0 6.04)"></path><path id="Path-10" data-name="Path" class="cls-3" d="M65.844,8H63.335c-1.4,0-2.523.379-2.523.847,0,.439,1.007.789,2.284.83-.616,1.253-2.579,2.359-5.4,3.119a36.964,36.964,0,0,1-9.511,1.135A37,37,0,0,1,38.669,12.8c-2.821-.759-4.784-1.864-5.4-3.117,1.29-.038,2.309-.391,2.309-.832,0-.468-1.128-.847-2.523-.847H30.523C29.128,8,28,8.379,28,8.847V31.723c0,.468,1.128.847,2.523.847H65.841c1.4,0,2.523-.379,2.523-.847V8.847C68.367,8.379,67.239,8,65.844,8Z" transform="translate(21.139 6.04)"></path><path id="Path-11" data-name="Path" class="cls-3" d="M92.844,8H90.335c-1.4,0-2.523.379-2.523.847,0,.439,1.007.789,2.284.83-.616,1.253-2.579,2.359-5.4,3.119a36.964,36.964,0,0,1-9.511,1.135A37,37,0,0,1,65.669,12.8c-2.821-.759-4.784-1.864-5.4-3.117,1.29-.038,2.309-.391,2.309-.832,0-.468-1.128-.847-2.523-.847H57.523C56.128,8,55,8.379,55,8.847V31.723c0,.468,1.128.847,2.523.847H92.841c1.4,0,2.523-.379,2.523-.847V8.847C95.367,8.379,94.239,8,92.844,8Z" transform="translate(41.524 6.04)"></path><path id="Path-12" data-name="Path" class="cls-4" d="M73.795,21.073A10.527,10.527,0,0,0,63.87,28.08a15.795,15.795,0,1,1,19.849,0,10.526,10.526,0,0,0-9.924-7.007A5.268,5.268,0,1,0,68.53,15.8,5.265,5.265,0,0,0,73.795,21.073Z" transform="translate(43.789)"></path><path id="Path-13" data-name="Path" class="cls-5" d="M70.652,11A10.26,10.26,0,0,1,80.3,18,14.97,14.97,0,0,1,61,18,10.26,10.26,0,0,1,70.652,11Z" transform="translate(46.054 8.305)"></path><path id="Path-14" data-name="Path" class="cls-6" d="M43.652,11A10.26,10.26,0,0,1,53.3,18,14.97,14.97,0,0,1,34,18,10.26,10.26,0,0,1,43.652,11Z" transform="translate(25.669 8.305)"></path><path id="Path-15" data-name="Path" class="cls-4" d="M40.53,15.8a5.282,5.282,0,0,0,5.265,5.268A10.526,10.526,0,0,0,35.87,28.08a15.795,15.795,0,1,1,19.849,0,10.526,10.526,0,0,0-9.924-7.007A5.268,5.268,0,1,0,40.53,15.8Z" transform="translate(22.649)"></path><path id="Path-16" data-name="Path" class="cls-4" d="M12.53,15.8a5.282,5.282,0,0,0,5.265,5.268A10.527,10.527,0,0,0,7.87,28.08a15.795,15.795,0,1,1,19.849,0,10.527,10.527,0,0,0-9.924-7.007A5.268,5.268,0,1,0,12.53,15.8Z" transform="translate(1.51)"></path><path id="Path-17" data-name="Path" class="cls-7" d="M15.652,11A10.26,10.26,0,0,1,25.3,18,14.97,14.97,0,0,1,6,18,10.26,10.26,0,0,1,15.652,11Z" transform="translate(4.53 8.305)"></path><path id="Path-18" data-name="Path" class="cls-8" d="M21.04,12.02A7.02,7.02,0,1,1,14.02,5,7.019,7.019,0,0,1,21.04,12.02Z" transform="translate(5.285 3.775)"></path><path id="Path-19" data-name="Path" class="cls-8" d="M49.04,12.02A7.02,7.02,0,1,1,42.02,5,7.019,7.019,0,0,1,49.04,12.02Z" transform="translate(26.424 3.775)"></path><path id="Path-20" data-name="Path" class="cls-8" d="M77.04,12.02A7.02,7.02,0,1,1,70.02,5,7.019,7.019,0,0,1,77.04,12.02Z" transform="translate(47.564 3.775)"></path></g><g id="Group-3" transform="translate(10.53 64.934)"><path id="Path-21" data-name="Path" class="cls-3" d="M96.942,9.953V2.488A2.464,2.464,0,0,0,94.519,0H2.423A2.464,2.464,0,0,0,0,2.488V27.346a2.464,2.464,0,0,0,2.423,2.488h92.1a2.464,2.464,0,0,0,2.423-2.488v-7.44l4.847-4.977Z"></path><path id="Path-22" data-name="Path" class="cls-7" d="M45.015,39.265H2.369a2.647,2.647,0,0,1,0-5.265H45.015a2.647,2.647,0,0,1,0,5.265Z" transform="translate(0 25.669)"></path><path id="Path-23" data-name="Path" class="cls-1" d="M73.859,8.51H8.34C7.046,8.51,6,7.725,6,6.755S7.046,5,8.34,5H73.859c1.294,0,2.34.784,2.34,1.755S75.153,8.51,73.859,8.51Z" transform="translate(4.53 3.775)"></path><path id="Path-24" data-name="Path" class="cls-1" d="M42.2,14.265H8.413A2.528,2.528,0,0,1,6,11.632,2.528,2.528,0,0,1,8.413,9H42.2a2.528,2.528,0,0,1,2.413,2.632A2.528,2.528,0,0,1,42.2,14.265Z" transform="translate(4.53 6.795)"></path><path id="Path-25" data-name="Path" class="cls-3" d="M134.487,22a2.339,2.339,0,0,1,2.4,2.256V35.538a2.339,2.339,0,0,1-2.4,2.256H2.4A2.339,2.339,0,0,1,0,35.538V24.256A2.339,2.339,0,0,1,2.4,22Z" transform="translate(0 16.61)"></path></g></g></g></svg> 